<svg width="1200" height="900" xmlns="http://www.w3.org/2000/svg"><rect width="1200" height="900" fill="white"/><rect x="229.1620605973883" y="183.34301400533712" width="2.9613563735105557" height="3.213084674827401" fill="#808080" stroke="black" stroke-width="1"/><text x="230.64273878414355" y="188.9495563427508" text-anchor="middle" fill="white" font-size="12">undefined</text><rect x="226.52711604007783" y="183.22074558447522" width="1.9187730004356276" height="3.8063070166992934" fill="#808080" stroke="black" stroke-width="1"/><text x="227.48650254029565" y="189.12389909282487" text-anchor="middle" fill="white" font-size="12">undefined</text><rect x="228.96215626635063" y="180.27221263851524" width="3.3766444578556682" height="2.1356100432543457" fill="#808080" stroke="black" stroke-width="1"/><text x="230.65047849527846" y="185.34001766014242" text-anchor="middle" fill="white" font-size="12">undefined</text><rect x="227.52933110075722" y="187.82299329297652" width="3.6230475734848446" height="1.837639910573021" fill="#808080" stroke="black" stroke-width="1"/><text x="229.34085488749963" y="192.741813248263" text-anchor="middle" fill="white" font-size="12">undefined</text><rect x="232.53965819532843" y="183.88873960301484" width="1.9627920236056853" height="3.26557901470768" fill="#808080" stroke="black" stroke-width="1"/><text x="233.52105420713127" y="189.52152911036868" text-anchor="middle" fill="white" font-size="12">undefined</text><rect x="225.44388119637364" y="179.94666854237622" width="2.7628957668720333" height="2.240459802454764" fill="#808080" stroke="black" stroke-width="1"/><text x="226.82532907980962" y="185.06689844360358" text-anchor="middle" fill="white" font-size="12">undefined</text><rect x="233.22784142865564" y="181.4" width="3.4571290835595447" height="1.7353023577071915" fill="#808080" stroke="black" stroke-width="1"/><text x="234.9564059704354" y="186.26765117885358" text-anchor="middle" fill="white" font-size="12">undefined</text><rect x="232.5104483286648" y="187.74152775657433" width="3.0933974292994018" height="1.8740343912459048" fill="#808080" stroke="black" stroke-width="1"/><text x="234.0571470433145" y="192.67854495219729" text-anchor="middle" fill="white" font-size="12">undefined</text><rect x="224.14863936256873" y="183.79043848562242" width="1.88268799310885" height="2.572893047800437" fill="#808080" stroke="black" stroke-width="1"/><text x="225.08998335912315" y="189.07688500952264" text-anchor="middle" fill="white" font-size="12">undefined</text><rect x="224.37143939173092" y="187.3951260139637" width="2.139526863702221" height="1.935142619914982" fill="#808080" stroke="black" stroke-width="1"/><text x="225.44120282358202" y="192.36269732392117" text-anchor="middle" fill="white" font-size="12">undefined</text></svg>